<?xml version="1.0" encoding="iso-8859-1"?>
<!-- Generator: Adobe Illustrator 19.0.0, SVG Export Plug-In . SVG Version: 6.00 Build 0)  -->
<svg version="1.1" id="Layer_1" xmlns="http://www.w3.org/2000/svg" xmlns:xlink="http://www.w3.org/1999/xlink" x="0px" y="0px"
	 viewBox="0 0 301.295 301.295" style="enable-background:new 0 0 301.295 301.295;" xml:space="preserve">
<g>
	<g>
		<g>
			<path d="M264.662,0H64.35c-3.96,0-7.169,3.21-7.169,7.168v47.91H41.581c-6.681,0-12.116,5.435-12.116,12.116v14.169
				c0,6.681,5.435,12.116,12.116,12.116h15.601v114.98H41.581c-6.681,0-12.116,5.435-12.116,12.116v14.169
				c0,6.681,5.435,12.116,12.116,12.116h15.601v47.265c0,3.96,3.21,7.169,7.169,7.169h200.312c3.959,0,7.169-3.21,7.168-7.169V7.168
				C271.831,3.209,268.621,0,264.662,0z M43.802,79.143v-9.728h43.511v9.728H43.802z M43.802,232.525v-9.729h43.511v9.729H43.802z
				 M257.493,286.958h-59.437l20.892-20.889c2.799-2.8,2.799-7.338,0-10.138c-2.8-2.799-7.338-2.799-10.139,0l-31.028,31.028h-37.02
				l20.89-20.89c2.799-2.8,2.799-7.338,0.001-10.138c-2.8-2.8-7.338-2.799-10.139,0l-31.027,31.028h-37.02l20.89-20.89
				c2.8-2.8,2.8-7.338,0-10.138c-2.8-2.8-7.338-2.8-10.138,0l-22.698,22.698v-31.767h18.015c6.681,0,12.116-5.435,12.116-12.116
				v-14.169c0-6.681-5.435-12.116-12.116-12.116H71.519V93.48h18.015c6.681,0,12.116-5.435,12.116-12.116V67.194
				c0-6.681-5.435-12.116-12.116-12.116H71.519V14.337h185.974V286.958z"/>
			<path d="M100.717,139.29c5.16,15.082,15.771,31.158,29.88,45.267c14.109,14.109,30.186,24.72,45.268,29.88
				c6.655,2.276,12.865,3.405,18.475,3.405c8.547,0,15.697-2.623,20.878-7.804l14.374-14.374c2.799-2.8,2.799-7.338,0-10.138
				l-24.828-24.828c-1.345-1.345-3.168-2.1-5.069-2.1c-1.902,0-3.725,0.756-5.069,2.1l-9.071,9.071L145.383,129.6l9.071-9.071
				c2.8-2.799,2.8-7.338,0-10.138l-24.827-24.828c-1.344-1.345-3.167-2.1-5.069-2.1c-1.901,0-3.724,0.755-5.069,2.1l-14.374,14.374
				C96.533,108.519,94.971,122.495,100.717,139.29z M115.254,110.074l9.305-9.305l14.69,14.689l-9.071,9.071
				c-2.8,2.8-2.8,7.338,0,10.138l50.309,50.309c1.345,1.345,3.168,2.1,5.069,2.1c1.902,0,3.725-0.756,5.069-2.1l9.071-9.071
				l14.69,14.69l-9.305,9.305c-9.192,9.192-37.878,0.986-64.346-25.481c-12.592-12.593-21.987-26.716-26.453-39.77
				C110.458,123.472,110.813,114.515,115.254,110.074z"/>
		</g>
	</g>
</g>
<g>
</g>
<g>
</g>
<g>
</g>
<g>
</g>
<g>
</g>
<g>
</g>
<g>
</g>
<g>
</g>
<g>
</g>
<g>
</g>
<g>
</g>
<g>
</g>
<g>
</g>
<g>
</g>
<g>
</g>
</svg>
