<?xml version="1.0" encoding="iso-8859-1"?>
<!-- Generator: Adobe Illustrator 18.1.1, SVG Export Plug-In . SVG Version: 6.00 Build 0)  -->
<svg version="1.1" id="Capa_1" xmlns="http://www.w3.org/2000/svg" xmlns:xlink="http://www.w3.org/1999/xlink" x="0px" y="0px"
	 viewBox="0 0 35.317 35.317" style="enable-background:new 0 0 35.317 35.317;" xml:space="preserve">
<g>
	<path style="fill:#030104;" d="M26.971,12.344c-0.748,0-1.492,0.104-2.223,0.305c-0.9-3.723-4.209-6.364-8.102-6.364
		c-3.716,0-7.015,2.521-8.021,6.064c-0.094-0.003-0.187-0.005-0.281-0.005C3.742,12.344,0,16.088,0,20.688s3.742,8.344,8.344,8.344
		h18.627c4.6,0,8.346-3.742,8.346-8.344S31.57,12.344,26.971,12.344z M26.971,27.893H8.344c-3.975,0-7.205-3.23-7.205-7.205
		s3.23-7.211,7.205-7.211c0.227,0,0.445,0.018,0.662,0.037l0.5,0.045l0.111-0.492c0.717-3.27,3.676-5.643,7.029-5.643
		c3.555,0,6.543,2.543,7.109,6.053l0.107,0.68l0.646-0.238c0.803-0.289,1.631-0.441,2.461-0.441c3.973,0,7.207,3.236,7.207,7.211
		S30.943,27.893,26.971,27.893z"/>
	<path style="fill:#030104;" d="M22.799,21.582c-0.729,0.014-2.488,0.047-2.488,0.047s-0.008-0.43-0.023-1.084
		c-0.035-1.879-0.102-5.297-0.131-6.688c0,0,0.096-0.383-0.477-0.371c-0.576,0.014-5.242,0.104-5.648,0.109
		c-0.412,0.008-0.395,0.324-0.395,0.324c0.025,1.354,0.092,4.891,0.129,6.705c0.01,0.586,0.02,0.971,0.02,0.971
		s-1.412,0.029-2.301,0.045c-0.887,0.018-0.203,0.67-0.203,0.67s4.926,4.898,5.459,5.408c0.389,0.375,0.744-0.055,0.744-0.055
		l5.387-5.449C22.871,22.215,23.531,21.568,22.799,21.582z"/>
</g>
<g>
</g>
<g>
</g>
<g>
</g>
<g>
</g>
<g>
</g>
<g>
</g>
<g>
</g>
<g>
</g>
<g>
</g>
<g>
</g>
<g>
</g>
<g>
</g>
<g>
</g>
<g>
</g>
<g>
</g>
</svg>
